<svg width="24" height="24" viewBox="0 0 24 24" fill="none" xmlns="http://www.w3.org/2000/svg">
    <path
        d="M12.75 0.75V3.7725L15.7725 2.0325L16.5225 3.33L12.75 5.505V10.7025L17.25 8.1V3.75H18.75V7.2375L21.3675 5.7225L22.1175 7.0275L19.5 8.535L22.5225 10.2825L21.7725 11.58L18 9.405L13.5 12L18 14.595L21.7725 12.42L22.5225 13.7175L19.5 15.465L22.1175 16.9725L21.3675 18.2775L18.75 16.7625V20.25H17.25V15.9L12.75 13.2975V18.495L16.5225 20.67L15.7725 21.9675L12.75 20.2275V23.25H11.25V20.2275L8.22754 21.9675L7.47754 20.67L11.25 18.495V13.2975L6.75004 15.9V20.25H5.25004V16.7625L2.63254 18.2775L1.88254 16.9725L4.50004 15.465L1.47754 13.7175L2.22754 12.42L6.00004 14.595L10.5 12L6.00004 9.405L2.22754 11.58L1.47754 10.2825L4.50004 8.535L1.88254 7.0275L2.63254 5.7225L5.25004 7.2375V3.75H6.75004V8.1L11.25 10.7025V5.505L7.47754 3.33L8.22754 2.0325L11.25 3.7725V0.75H12.75Z"
        fill="#6A4C65" />
</svg>