<svg width="17" height="18" viewBox="0 0 17 18" fill="none" xmlns="http://www.w3.org/2000/svg">
    <path
        d="M0.999921 10.7222V11.5555C0.999921 13.1472 1.89159 14.5305 3.20825 15.2305L2.66659 17.3888H4.33325L4.74992 15.7222H12.2499L12.6666 17.3888H14.3333L13.7916 15.2305C14.4589 14.8765 15.0172 14.3473 15.4063 13.6998C15.7954 13.0523 16.0006 12.3109 15.9999 11.5555V10.7222H16.8333V9.0555H1.83325V3.22217C1.83325 3.00115 1.92105 2.78919 2.07733 2.63291C2.23361 2.47663 2.44557 2.38883 2.66659 2.38883C3.08325 2.38883 3.39992 2.67217 3.49992 3.04717C2.97492 3.49717 2.66659 4.16383 2.66659 4.88883H7.66659C7.66659 4.22579 7.4032 3.58991 6.93435 3.12107C6.46551 2.65223 5.82963 2.38883 5.16659 2.38883H5.02492C4.68325 1.42217 3.75825 0.722168 2.66659 0.722168C2.00355 0.722168 1.36766 0.98556 0.898821 1.4544C0.429979 1.92324 0.166588 2.55913 0.166588 3.22217V10.7222H0.999921ZM2.66659 10.7222H14.3333V11.5555C14.3333 12.2185 14.0699 12.8544 13.601 13.3233C13.1322 13.7921 12.4963 14.0555 11.8333 14.0555H5.16659C4.50355 14.0555 3.86766 13.7921 3.39882 13.3233C2.92998 12.8544 2.66659 12.2185 2.66659 11.5555V10.7222Z"
        fill="#6A4C65" />
</svg>