<svg width="18" height="12" viewBox="0 0 18 12" fill="none" xmlns="http://www.w3.org/2000/svg">
    <path
        d="M0.666748 11.8888V6.88884C0.666748 6.51384 0.743137 6.17356 0.895915 5.868C1.04869 5.56245 1.25008 5.29161 1.50008 5.0555V2.72217C1.50008 2.02772 1.74314 1.43745 2.22925 0.951335C2.71536 0.465224 3.30564 0.222168 4.00008 0.222168H7.33341C7.65286 0.222168 7.95147 0.281334 8.22925 0.399668C8.50702 0.518001 8.76397 0.681057 9.00008 0.888835C9.23619 0.680502 9.49314 0.517446 9.77091 0.399668C10.0487 0.28189 10.3473 0.222724 10.6667 0.222168H14.0001C14.6945 0.222168 15.2848 0.465224 15.7709 0.951335C16.257 1.43745 16.5001 2.02772 16.5001 2.72217V5.0555C16.7501 5.29161 16.9515 5.56245 17.1042 5.868C17.257 6.17356 17.3334 6.51384 17.3334 6.88884V11.8888H15.6667V10.2222H2.33341V11.8888H0.666748ZM9.83341 4.38883H14.8334V2.72217C14.8334 2.48606 14.7534 2.28828 14.5934 2.12883C14.4334 1.96939 14.2356 1.88939 14.0001 1.88883H10.6667C10.4306 1.88883 10.2329 1.96883 10.0734 2.12883C9.91397 2.28884 9.83397 2.48661 9.83341 2.72217V4.38883ZM3.16675 4.38883H8.16675V2.72217C8.16675 2.48606 8.08675 2.28828 7.92675 2.12883C7.76675 1.96939 7.56897 1.88939 7.33341 1.88883H4.00008C3.76397 1.88883 3.56619 1.96883 3.40675 2.12883C3.2473 2.28884 3.1673 2.48661 3.16675 2.72217V4.38883ZM2.33341 8.5555H15.6667V6.88884C15.6667 6.65272 15.5867 6.45495 15.4267 6.2955C15.2667 6.13606 15.069 6.05606 14.8334 6.0555H3.16675C2.93064 6.0555 2.73286 6.1355 2.57341 6.2955C2.41397 6.4555 2.33397 6.65328 2.33341 6.88884V8.5555Z"
        fill="#6A4C65" />
</svg>