<svg width="24" height="24" viewBox="0 0 24 24" fill="none" xmlns="http://www.w3.org/2000/svg">
    <g clip-path="url(#clip0_40_4609)">
        <path
            d="M7.125 1.5C7.76029 1.49898 8.38297 1.67729 8.92143 2.01442C9.45988 2.35155 9.89226 2.83381 10.1688 3.40574C10.4454 3.97767 10.5549 4.61605 10.4848 5.24746C10.4147 5.87887 10.1678 6.47767 9.7725 6.975C10.2225 7.1325 10.65 7.38 11.0175 7.71L11.16 7.8525L13.05 9.75H23.25V11.25H21.75V21.75C21.7511 22.1291 21.6086 22.4945 21.3512 22.7728C21.0937 23.0511 20.7405 23.2216 20.3625 23.25H3.75C3.37092 23.2511 3.0055 23.1086 2.72721 22.8512C2.44893 22.5937 2.27843 22.2405 2.25 21.8625V11.25H0.75V9.75H2.325C2.44797 9.15351 2.71437 8.59595 3.10117 8.12552C3.48797 7.65509 3.98353 7.28594 4.545 7.05C4.13062 6.55832 3.86531 5.9585 3.78031 5.32113C3.69532 4.68376 3.79416 4.03538 4.06522 3.45229C4.33628 2.8692 4.76826 2.37568 5.31033 2.02982C5.8524 1.68395 6.48199 1.50013 7.125 1.5ZM12.435 11.25H3.75V21.75H20.25V11.25H14.5575L17.0325 13.725L15.9675 14.775L12.435 11.25ZM7.125 3C6.69151 2.99646 6.27018 3.14324 5.93273 3.41536C5.59527 3.68748 5.36253 4.06813 5.27411 4.49252C5.1857 4.91692 5.24707 5.35884 5.44779 5.74308C5.6485 6.12732 5.97616 6.43014 6.375 6.6V8.25H6C5.53451 8.24976 5.0804 8.39389 4.70026 8.66254C4.32012 8.93119 4.03266 9.31113 3.8775 9.75H10.935L10.095 8.91C9.70973 8.52548 9.19812 8.29365 8.655 8.2575L8.505 8.25H7.875V6.6C8.27384 6.43014 8.6015 6.12732 8.80221 5.74308C9.00293 5.35884 9.0643 4.91692 8.97589 4.49252C8.88747 4.06813 8.65473 3.68748 8.31727 3.41536C7.97982 3.14324 7.55849 2.99646 7.125 3ZM18.7425 0.75C18.6387 1.88782 18.1644 2.96016 17.3925 3.8025L17.055 4.1475C16.0067 5.27026 15.3741 6.71796 15.2625 8.25H13.7625C13.8807 6.23595 14.7348 4.33553 16.1625 2.91C16.7472 2.32801 17.1218 1.56817 17.2275 0.75H18.7425ZM20.2425 0.75H21.7425C21.625 2.76422 20.7708 4.66487 19.3425 6.09C18.761 6.67338 18.3892 7.43294 18.285 8.25H16.785C16.8909 7.11495 17.365 6.04565 18.135 5.205L18.465 4.8525C19.5084 3.72797 20.1356 2.2803 20.2425 0.75Z"
            fill="#6A4C65" />
    </g>
    <defs>
        <clipPath id="clip0_40_4609">
            <rect width="24" height="24" fill="white" />
        </clipPath>
    </defs>
</svg>