<svg width="24" height="24" viewBox="0 0 24 24" fill="none" xmlns="http://www.w3.org/2000/svg">
    <path
        d="M21 1.50001C21.3791 1.49894 21.7445 1.64144 22.0228 1.89885C22.3011 2.15626 22.4716 2.50949 22.5 2.88751V21C22.5011 21.3791 22.3586 21.7445 22.1012 22.0228C21.8437 22.3011 21.4905 22.4716 21.1125 22.5H3.00001C2.62093 22.5011 2.2555 22.3586 1.97722 22.1012C1.69894 21.8437 1.52844 21.4905 1.50001 21.1125V3.00001C1.49894 2.62093 1.64144 2.2555 1.89885 1.97722C2.15626 1.69894 2.50949 1.52844 2.88751 1.50001H3.00001H21ZM16.56 16.5H7.44001L3.00001 20.9325V21H21V20.9325L16.56 16.5ZM21 3.00001H3.00001V18.81L12 9.81001L21 18.81V3.00001ZM12 11.9325L8.93251 15H15.06L12 11.9325ZM16.5 5.25001C17.0967 5.25001 17.669 5.48706 18.091 5.90902C18.513 6.33097 18.75 6.90327 18.75 7.50001C18.75 8.09674 18.513 8.66904 18.091 9.091C17.669 9.51295 17.0967 9.75001 16.5 9.75001C15.9033 9.75001 15.331 9.51295 14.909 9.091C14.4871 8.66904 14.25 8.09674 14.25 7.50001C14.25 6.90327 14.4871 6.33097 14.909 5.90902C15.331 5.48706 15.9033 5.25001 16.5 5.25001ZM16.5 6.75001C16.3011 6.75001 16.1103 6.82902 15.9697 6.96968C15.829 7.11033 15.75 7.30109 15.75 7.50001C15.75 7.69892 15.829 7.88968 15.9697 8.03034C16.1103 8.17099 16.3011 8.25001 16.5 8.25001C16.6989 8.25001 16.8897 8.17099 17.0303 8.03034C17.171 7.88968 17.25 7.69892 17.25 7.50001C17.25 7.30109 17.171 7.11033 17.0303 6.96968C16.8897 6.82902 16.6989 6.75001 16.5 6.75001Z"
        fill="#6A4C65" />
</svg>