<svg width="20" height="21" viewBox="0 0 20 21" fill="none" xmlns="http://www.w3.org/2000/svg">
<path d="M6.66699 5.22314C6.32533 5.22314 6.04199 4.93981 6.04199 4.59814L6.04199 2.09814C6.04199 1.75648 6.32533 1.47314 6.66699 1.47314C7.00866 1.47314 7.29199 1.75648 7.29199 2.09814V4.59814C7.29199 4.93981 7.00866 5.22314 6.66699 5.22314Z" fill="#6A4C65"/>
<path d="M13.333 5.22314C12.9913 5.22314 12.708 4.93981 12.708 4.59814V2.09814C12.708 1.75648 12.9913 1.47314 13.333 1.47314C13.6747 1.47314 13.958 1.75648 13.958 2.09814V4.59814C13.958 4.93981 13.6747 5.22314 13.333 5.22314Z" fill="#6A4C65"/>
<path d="M17.0837 8.63184L2.91699 8.63184C2.57533 8.63184 2.29199 8.3485 2.29199 8.00684C2.29199 7.66517 2.57533 7.38184 2.91699 7.38184L17.0837 7.38184C17.4253 7.38184 17.7087 7.66517 17.7087 8.00684C17.7087 8.3485 17.4253 8.63184 17.0837 8.63184Z" fill="#6A4C65"/>
<path d="M13.3333 19.3898L6.66667 19.3898C3.625 19.3898 1.875 17.6398 1.875 14.5981L1.875 7.51481C1.875 4.47314 3.625 2.72314 6.66667 2.72314L13.3333 2.72314C16.375 2.72314 18.125 4.47314 18.125 7.51481L18.125 14.5981C18.125 17.6398 16.375 19.3898 13.3333 19.3898ZM6.66667 3.97314C4.28333 3.97314 3.125 5.13148 3.125 7.51481L3.125 14.5981C3.125 16.9815 4.28333 18.1398 6.66667 18.1398H13.3333C15.7167 18.1398 16.875 16.9815 16.875 14.5981V7.51481C16.875 5.13148 15.7167 3.97314 13.3333 3.97314L6.66667 3.97314Z" fill="#6A4C65"/>
<path d="M7.08333 12.5148C6.975 12.5148 6.86666 12.4898 6.76666 12.4482C6.66666 12.4065 6.57501 12.3481 6.49167 12.2731C6.41667 12.1898 6.35832 12.0982 6.31666 11.9982C6.27499 11.8982 6.25 11.7898 6.25 11.6815C6.25 11.4648 6.34167 11.2482 6.49167 11.0898C6.57501 11.0148 6.66666 10.9565 6.76666 10.9148C6.91666 10.8481 7.08334 10.8315 7.25001 10.8648C7.30001 10.8731 7.35 10.8898 7.4 10.9148C7.45 10.9315 7.5 10.9565 7.55 10.9898C7.59166 11.0232 7.63333 11.0565 7.67499 11.0898C7.70833 11.1315 7.74999 11.1732 7.77499 11.2148C7.80832 11.2648 7.83334 11.3148 7.85001 11.3648C7.87501 11.4148 7.89168 11.4648 7.90001 11.5148C7.90834 11.5731 7.91667 11.6232 7.91667 11.6815C7.91667 11.8982 7.82499 12.1148 7.67499 12.2731C7.51666 12.4231 7.3 12.5148 7.08333 12.5148Z" fill="#6A4C65"/>
<path d="M10.0003 12.5149C9.78366 12.5149 9.567 12.4232 9.40867 12.2732C9.37533 12.2315 9.342 12.1899 9.30867 12.1482C9.27534 12.0982 9.25031 12.0482 9.23365 11.9982C9.20865 11.9482 9.19198 11.8982 9.18365 11.8482C9.17532 11.7899 9.16699 11.7399 9.16699 11.6815C9.16699 11.5732 9.19198 11.4649 9.23365 11.3649C9.27531 11.2649 9.33367 11.1732 9.40867 11.0899C9.642 10.8565 10.017 10.7815 10.317 10.9149C10.4253 10.9565 10.5087 11.0149 10.592 11.0899C10.742 11.2482 10.8337 11.4649 10.8337 11.6815C10.8337 11.7399 10.8253 11.7899 10.817 11.8482C10.8087 11.8982 10.792 11.9482 10.767 11.9982C10.7503 12.0482 10.7253 12.0982 10.692 12.1482C10.6586 12.1899 10.6253 12.2315 10.592 12.2732C10.5087 12.3482 10.4253 12.4065 10.317 12.4482C10.217 12.4899 10.1087 12.5149 10.0003 12.5149Z" fill="#6A4C65"/>
<path d="M7.08333 15.4319C6.975 15.4319 6.86666 15.4069 6.76666 15.3652C6.66666 15.3235 6.57501 15.2652 6.49167 15.1902C6.41667 15.1069 6.35832 15.0235 6.31666 14.9152C6.27499 14.8152 6.25 14.7069 6.25 14.5985C6.25 14.3819 6.34167 14.1652 6.49167 14.0069C6.57501 13.9319 6.66666 13.8735 6.76666 13.8318C7.075 13.6985 7.44166 13.7735 7.67499 14.0069C7.70833 14.0485 7.74999 14.0902 7.77499 14.1319C7.80832 14.1819 7.83334 14.2319 7.85001 14.2819C7.87501 14.3319 7.89168 14.3819 7.90001 14.4402C7.90834 14.4902 7.91667 14.5485 7.91667 14.5985C7.91667 14.8152 7.82499 15.0319 7.67499 15.1902C7.51666 15.3402 7.3 15.4319 7.08333 15.4319Z" fill="#6A4C65"/>
</svg>
