<svg width="24" height="24" viewBox="0 0 24 24" fill="none" xmlns="http://www.w3.org/2000/svg">
<path
        d="M2.41752 5.7975L3.49752 6.8775C2.54702 8.41672 2.04566 10.191 2.05002 12C2.04967 13.7353 2.51249 15.4393 3.39068 16.9361C4.26888 18.4328 5.53063 19.668 7.04568 20.5142C8.56074 21.3604 10.2742 21.7869 12.0091 21.7497C13.7441 21.7125 15.4376 21.2129 16.915 20.3025L18.0025 21.3825C16.1642 22.6025 14.0064 23.2522 11.8 23.25C9.7679 23.2494 7.77389 22.6984 6.02978 21.6556C4.28567 20.6127 2.8566 19.1169 1.89437 17.327C0.932139 15.5372 0.472677 13.5201 0.564788 11.4901C0.656899 9.46004 1.29715 7.49286 2.41752 5.7975ZM2.58252 1.7175L22.0825 21.2175L21.0175 22.2825L1.51752 2.7825L2.58252 1.7175ZM11.8 0.750001C13.8328 0.749225 15.8278 1.29923 17.5729 2.34155C19.3181 3.38388 20.7483 4.87958 21.7114 6.66968C22.6745 8.45978 23.1346 10.4774 23.0428 12.5081C22.951 14.5387 22.3107 16.5066 21.19 18.2025L20.1025 17.115C21.0517 15.578 21.553 13.8065 21.55 12C21.55 9.41414 20.5228 6.93419 18.6943 5.10571C16.8658 3.27723 14.3859 2.25 11.8 2.25C9.99098 2.24565 8.21674 2.74701 6.67752 3.6975L5.60502 2.625C7.44042 1.4038 9.59547 0.751542 11.8 0.750001ZM8.12502 12.75C8.27199 13.4707 8.62765 14.1322 9.14773 14.6523C9.66781 15.1724 10.3293 15.528 11.05 15.675V17.1975C9.92786 17.0358 8.88821 16.5152 8.08653 15.7135C7.28485 14.9118 6.76423 13.8722 6.60252 12.75H8.12502ZM12.55 15.93L13.5625 16.95C13.2341 17.0661 12.8949 17.149 12.55 17.1975V15.93ZM15.73 12.75H16.9975C16.945 13.1025 16.8625 13.44 16.7425 13.7625L15.73 12.75ZM12.55 6.8025C13.6722 6.96421 14.7118 7.48483 15.5135 8.28651C16.3152 9.08819 16.8358 10.1278 16.9975 11.25H15.475C15.328 10.5293 14.9724 9.86779 14.4523 9.34771C13.9322 8.82763 13.2707 8.47198 12.55 8.325V6.8025ZM6.85002 10.2375L7.87002 11.25H6.60252C6.65502 10.8975 6.73752 10.56 6.85002 10.2375ZM11.05 6.8025V8.07L10.0375 7.05C10.3659 6.93388 10.7051 6.85096 11.05 6.8025ZM17.05 6C17.2489 6 17.4397 6.07902 17.5803 6.21967C17.721 6.36032 17.8 6.55109 17.8 6.75C17.8 6.94891 17.721 7.13968 17.5803 7.28033C17.4397 7.42098 17.2489 7.5 17.05 7.5C16.8511 7.5 16.6603 7.42098 16.5197 7.28033C16.379 7.13968 16.3 6.94891 16.3 6.75C16.3 6.55109 16.379 6.36032 16.5197 6.21967C16.6603 6.07902 16.8511 6 17.05 6Z"
        fill="#6A4C65" />
</svg>
