<svg width="25" height="24" viewBox="0 0 25 24" fill="none" xmlns="http://www.w3.org/2000/svg">
<path
        d="M21.7998 1.50001C22.1789 1.49894 22.5443 1.64144 22.8226 1.89885C23.1009 2.15626 23.2714 2.50949 23.2998 2.88751V21C23.3009 21.3791 23.1584 21.7445 22.901 22.0228C22.6436 22.3011 22.2903 22.4716 21.9123 22.5H3.79981C3.42073 22.5011 3.05531 22.3586 2.77702 22.1012C2.49874 21.8437 2.32824 21.4905 2.29981 21.1125V3.00001C2.29874 2.62093 2.44124 2.2555 2.69866 1.97722C2.95607 1.69894 3.3093 1.52844 3.68731 1.50001H3.79981H21.7998ZM17.3598 16.5H8.23981L3.79981 20.9325V21H21.7998V20.9325L17.3598 16.5ZM21.7998 3.00001H3.79981V18.81L12.7998 9.81001L21.7998 18.81V3.00001ZM12.7998 11.9325L9.73231 15H15.8598L12.7998 11.9325ZM17.2998 5.25001C17.8965 5.25001 18.4688 5.48706 18.8908 5.90902C19.3128 6.33097 19.5498 6.90327 19.5498 7.50001C19.5498 8.09674 19.3128 8.66904 18.8908 9.091C18.4688 9.51295 17.8965 9.75001 17.2998 9.75001C16.7031 9.75001 16.1308 9.51295 15.7088 9.091C15.2869 8.66904 15.0498 8.09674 15.0498 7.50001C15.0498 6.90327 15.2869 6.33097 15.7088 5.90902C16.1308 5.48706 16.7031 5.25001 17.2998 5.25001ZM17.2998 6.75001C17.1009 6.75001 16.9101 6.82902 16.7695 6.96968C16.6288 7.11033 16.5498 7.30109 16.5498 7.50001C16.5498 7.69892 16.6288 7.88968 16.7695 8.03034C16.9101 8.17099 17.1009 8.25001 17.2998 8.25001C17.4987 8.25001 17.6895 8.17099 17.8301 8.03034C17.9708 7.88968 18.0498 7.69892 18.0498 7.50001C18.0498 7.30109 17.9708 7.11033 17.8301 6.96968C17.6895 6.82902 17.4987 6.75001 17.2998 6.75001Z"
        fill="#6A4C65" />
</svg>
