<svg width="21" height="20" viewBox="0 0 21 20" fill="none" xmlns="http://www.w3.org/2000/svg">
<path d="M10.5001 19.0082C9.92508 19.0082 9.38341 18.7165 9.00008 18.2082L7.75008 16.5415C7.72508 16.5082 7.62508 16.4665 7.58342 16.4582H7.16675C3.69175 16.4582 1.54175 15.5165 1.54175 10.8332V6.6665C1.54175 2.98317 3.48341 1.0415 7.16675 1.0415H13.8334C17.5167 1.0415 19.4584 2.98317 19.4584 6.6665V10.8332C19.4584 14.5165 17.5167 16.4582 13.8334 16.4582H13.4167C13.3501 16.4582 13.2917 16.4915 13.2501 16.5415L12.0001 18.2082C11.6167 18.7165 11.0751 19.0082 10.5001 19.0082ZM7.16675 2.2915C4.18341 2.2915 2.79175 3.68317 2.79175 6.6665V10.8332C2.79175 14.5998 4.08341 15.2082 7.16675 15.2082H7.58342C8.00842 15.2082 8.49175 15.4498 8.75008 15.7915L10.0001 17.4582C10.2917 17.8415 10.7084 17.8415 11.0001 17.4582L12.2501 15.7915C12.5251 15.4248 12.9584 15.2082 13.4167 15.2082H13.8334C16.8167 15.2082 18.2084 13.8165 18.2084 10.8332V6.6665C18.2084 3.68317 16.8167 2.2915 13.8334 2.2915H7.16675Z" fill="#9995AC"/>
<path d="M14.6666 7.2915H6.33325C5.99159 7.2915 5.70825 7.00817 5.70825 6.6665C5.70825 6.32484 5.99159 6.0415 6.33325 6.0415H14.6666C15.0083 6.0415 15.2916 6.32484 15.2916 6.6665C15.2916 7.00817 15.0083 7.2915 14.6666 7.2915Z" fill="#9995AC"/>
<path d="M11.3333 11.4585H6.33325C5.99159 11.4585 5.70825 11.1752 5.70825 10.8335C5.70825 10.4918 5.99159 10.2085 6.33325 10.2085H11.3333C11.6749 10.2085 11.9583 10.4918 11.9583 10.8335C11.9583 11.1752 11.6749 11.4585 11.3333 11.4585Z" fill="#9995AC"/>
</svg>
