<svg width="40" height="41" viewBox="0 0 40 41" fill="none" xmlns="http://www.w3.org/2000/svg">
<g clip-path="url(#clip0_1319_815)">
<path fill-rule="evenodd" clip-rule="evenodd" d="M19.9938 13.4222C18.1944 11.3186 15.1938 10.7527 12.9392 12.679C10.6847 14.6053 10.3673 17.8261 12.1378 20.1044C13.6098 21.9986 18.0648 25.9937 19.5249 27.2867C19.6882 27.4314 19.7699 27.5037 19.8652 27.5322C19.9483 27.557 20.0393 27.557 20.1225 27.5322C20.2178 27.5037 20.2994 27.4314 20.4628 27.2867C21.9229 25.9937 26.3778 21.9986 27.8499 20.1044C29.6204 17.8261 29.3417 14.5851 27.0484 12.679C24.7551 10.7729 21.7933 11.3186 19.9938 13.4222Z" stroke="#9995AC" stroke-width="2" stroke-linecap="round" stroke-linejoin="round"/>
</g>
<defs>
<clipPath id="clip0_1319_815">
<rect width="40" height="40" fill="white" transform="translate(0 0.5)"/>
</clipPath>
</defs>
</svg>
