<svg width="21" height="20" viewBox="0 0 21 20" fill="none" xmlns="http://www.w3.org/2000/svg">
<path d="M10.5 15.625C10.1583 15.625 9.875 15.3417 9.875 15V12.5C9.875 12.1583 10.1583 11.875 10.5 11.875C10.8417 11.875 11.125 12.1583 11.125 12.5V15C11.125 15.3417 10.8417 15.625 10.5 15.625Z" fill="#9995AC"/>
<path d="M15.1666 18.8H5.8333C4.31663 18.8 2.9333 17.6333 2.6833 16.1417L1.57497 9.50001C1.39163 8.46668 1.89997 7.14168 2.72497 6.48335L8.49997 1.85835C9.61663 0.958348 11.375 0.966681 12.5 1.86668L18.275 6.48335C19.0916 7.14168 19.5916 8.46668 19.425 9.50001L18.3166 16.1333C18.0666 17.6083 16.65 18.8 15.1666 18.8ZM10.4916 2.44168C10.05 2.44168 9.6083 2.57501 9.2833 2.83335L3.5083 7.46668C3.04163 7.84168 2.7083 8.70835 2.8083 9.30001L3.91663 15.9333C4.06663 16.8083 4.94163 17.55 5.8333 17.55H15.1666C16.0583 17.55 16.9333 16.8083 17.0833 15.925L18.1916 9.29168C18.2833 8.70835 17.95 7.82501 17.4916 7.45835L11.7166 2.84168C11.3833 2.57501 10.9333 2.44168 10.4916 2.44168Z" fill="#9995AC"/>
</svg>
