<svg width="18" height="19" viewBox="0 0 18 19" fill="none" xmlns="http://www.w3.org/2000/svg">
<path d="M14.4399 12.8699C14.2499 12.8699 14.0599 12.7999 13.9099 12.6499C13.6199 12.3599 13.6199 11.8799 13.9099 11.5899L15.9399 9.55994L13.9099 7.52994C13.6199 7.23994 13.6199 6.75994 13.9099 6.46994C14.1999 6.17994 14.6799 6.17994 14.9699 6.46994L17.5299 9.02994C17.8199 9.31994 17.8199 9.79994 17.5299 10.0899L14.9699 12.6499C14.8199 12.7999 14.6299 12.8699 14.4399 12.8699Z" fill="#9995AC"/>
<path d="M16.9298 10.3101H6.75977C6.34977 10.3101 6.00977 9.97006 6.00977 9.56006C6.00977 9.15006 6.34977 8.81006 6.75977 8.81006H16.9298C17.3398 8.81006 17.6798 9.15006 17.6798 9.56006C17.6798 9.97006 17.3398 10.3101 16.9298 10.3101Z" fill="#9995AC"/>
<path d="M8.75977 18.25C3.60977 18.25 0.00976562 14.65 0.00976562 9.5C0.00976562 4.35 3.60977 0.75 8.75977 0.75C9.16977 0.75 9.50977 1.09 9.50977 1.5C9.50977 1.91 9.16977 2.25 8.75977 2.25C4.48977 2.25 1.50977 5.23 1.50977 9.5C1.50977 13.77 4.48977 16.75 8.75977 16.75C9.16977 16.75 9.50977 17.09 9.50977 17.5C9.50977 17.91 9.16977 18.25 8.75977 18.25Z" fill="#9995AC"/>
</svg>
