<svg width="21" height="20" viewBox="0 0 21 20" fill="none" xmlns="http://www.w3.org/2000/svg">
<path d="M17.4833 17.6085C17.3166 17.6085 17.1583 17.5418 17.0416 17.4252L11.725 12.1085C11.4833 11.8668 11.4833 11.4668 11.725 11.2252L18.1666 4.78351C18.325 4.62517 18.5666 4.56684 18.7833 4.62517C19 4.69184 19.1666 4.86684 19.2166 5.08351C19.3749 5.79184 19.4583 6.5835 19.4583 7.50017V12.5002C19.4583 14.8085 18.975 16.3668 17.925 17.4252C17.8083 17.5418 17.6333 17.5668 17.4833 17.6085ZM13.0499 11.6668L17.4333 16.0502C17.9583 15.2418 18.2083 14.0918 18.2083 12.5002V7.50017C18.2083 7.1585 18.1999 6.84184 18.1749 6.54184L13.0499 11.6668Z" fill="#9995AC"/>
<path d="M5.72507 18.7332C5.67507 18.7332 5.63342 18.7248 5.58342 18.7165C2.82509 18.0832 1.54175 16.1082 1.54175 12.4998V7.49984C1.54175 2.97484 3.47508 1.0415 8.00008 1.0415H13.0001C16.6084 1.0415 18.5834 2.32484 19.2167 5.08318C19.2667 5.29151 19.2001 5.51651 19.0501 5.66651L6.16674 18.5498C6.05007 18.6665 5.89174 18.7332 5.72507 18.7332ZM8.00008 2.2915C4.15841 2.2915 2.79175 3.65817 2.79175 7.49984V12.4998C2.79175 15.3915 3.59176 16.8415 5.53342 17.4165L17.9084 5.04151C17.3418 3.09984 15.8834 2.29983 12.9917 2.29983H8.00008V2.2915Z" fill="#9995AC"/>
<path d="M12.9998 18.9585H7.99982C7.08316 18.9585 6.29983 18.8835 5.58316 18.7169C5.35816 18.6669 5.18315 18.5002 5.12481 18.2835C5.05815 18.0669 5.12482 17.8335 5.28315 17.6669L11.7248 11.2252C11.9665 10.9835 12.3665 10.9835 12.6082 11.2252L17.9248 16.5419C18.0415 16.6585 18.1082 16.8169 18.1082 16.9835C18.1082 17.1502 18.0415 17.3085 17.9248 17.4252C16.8665 18.4752 15.3082 18.9585 12.9998 18.9585ZM7.0415 17.6752C7.3415 17.7002 7.65816 17.7085 7.99982 17.7085H12.9998C14.5998 17.7085 15.7415 17.4585 16.5498 16.9335L12.1665 12.5502L7.0415 17.6752Z" fill="#9995AC"/>
<path d="M8.09987 11.0919C7.57487 11.0919 7.04986 10.9002 6.63319 10.5085C5.30819 9.2502 4.77488 7.86687 5.09155 6.51687C5.40822 5.13354 6.61654 4.2002 8.09987 4.2002C9.5832 4.2002 10.7915 5.13354 11.1082 6.51687C11.4165 7.87521 10.8832 9.2502 9.5582 10.5085C9.14987 10.8919 8.62487 11.0919 8.09987 11.0919ZM6.30821 6.79186C6.04154 7.9252 6.8082 8.94187 7.49987 9.6002C7.84154 9.9252 8.36654 9.9252 8.69987 9.6002C9.3832 8.9502 10.1499 7.93353 9.89153 6.79186C9.66653 5.8002 8.7832 5.44187 8.09987 5.44187C7.41654 5.44187 6.54154 5.8002 6.30821 6.79186Z" fill="#9995AC"/>
<path d="M8.12484 7.90837C7.6665 7.90837 7.2915 7.53337 7.2915 7.07503C7.2915 6.6167 7.65817 6.2417 8.12484 6.2417H8.13318C8.59151 6.2417 8.96651 6.6167 8.96651 7.07503C8.96651 7.53337 8.58317 7.90837 8.12484 7.90837Z" fill="#9995AC"/>
</svg>
