<svg width="40" height="41" viewBox="0 0 40 41" fill="none" xmlns="http://www.w3.org/2000/svg">
<path d="M16.7449 28.6C17.3795 29.1601 18.2131 29.5 19.1261 29.5C20.0391 29.5 20.8727 29.1601 21.5074 28.6M24.5261 16.9C24.5261 15.4678 23.9572 14.0943 22.9445 13.0816C21.9318 12.0689 20.5583 11.5 19.1261 11.5C17.6939 11.5 16.3204 12.0689 15.3077 13.0816C14.295 14.0943 13.7261 15.4678 13.7261 16.9C13.7261 19.6812 13.0245 21.5854 12.2408 22.8449C11.5797 23.9073 11.2492 24.4385 11.2613 24.5867C11.2747 24.7508 11.3095 24.8133 11.4417 24.9114C11.5611 25 12.0994 25 13.1761 25H25.0761C26.1528 25 26.6911 25 26.8105 24.9114C26.9427 24.8133 26.9775 24.7508 26.9909 24.5867C27.003 24.4385 26.6725 23.9073 26.0114 22.8449C25.2277 21.5854 24.5261 19.6812 24.5261 16.9Z" stroke="#9995AC" stroke-width="2" stroke-linecap="round" stroke-linejoin="round"/>
</svg>
