<svg width="21" height="20" viewBox="0 0 21 20" fill="none" xmlns="http://www.w3.org/2000/svg">
<path d="M11.3334 18.9582H4.66675C2.65008 18.9582 1.54175 17.8498 1.54175 15.8332V9.1665C1.54175 7.14984 2.65008 6.0415 4.66675 6.0415H8.83341C9.17508 6.0415 9.45841 6.32484 9.45841 6.6665V15.8332C9.45841 17.1498 10.0167 17.7082 11.3334 17.7082C11.6751 17.7082 11.9584 17.9915 11.9584 18.3332C11.9584 18.6748 11.6751 18.9582 11.3334 18.9582ZM4.66675 7.2915C3.35008 7.2915 2.79175 7.84984 2.79175 9.1665V15.8332C2.79175 17.1498 3.35008 17.7082 4.66675 17.7082H8.66674C8.36674 17.2165 8.20841 16.5915 8.20841 15.8332V7.2915H4.66675Z" fill="#9995AC"/>
<path d="M8.83342 7.29183H4.66675C4.32508 7.29183 4.04175 7.0085 4.04175 6.66683V5.00016C4.04175 3.7335 5.06675 2.7085 6.33341 2.7085H8.92507C9.11674 2.7085 9.30009 2.80014 9.41676 2.95014C9.53343 3.10848 9.57507 3.3085 9.52507 3.49183C9.47507 3.67516 9.45842 3.8835 9.45842 4.16683V6.66683C9.45842 7.0085 9.17508 7.29183 8.83342 7.29183ZM5.29175 6.04183H8.20842V4.16683C8.20842 4.09183 8.20842 4.02516 8.20842 3.9585H6.33341C5.75841 3.9585 5.29175 4.42516 5.29175 5.00016V6.04183Z" fill="#9995AC"/>
<path d="M12.1667 11.4582C11.8251 11.4582 11.5417 11.1748 11.5417 10.8332V6.6665C11.5417 6.32484 11.8251 6.0415 12.1667 6.0415C12.5084 6.0415 12.7917 6.32484 12.7917 6.6665V10.8332C12.7917 11.1748 12.5084 11.4582 12.1667 11.4582Z" fill="#9995AC"/>
<path d="M15.5 11.4582C15.1583 11.4582 14.875 11.1748 14.875 10.8332V6.6665C14.875 6.32484 15.1583 6.0415 15.5 6.0415C15.8417 6.0415 16.125 6.32484 16.125 6.6665V10.8332C16.125 11.1748 15.8417 11.4582 15.5 11.4582Z" fill="#9995AC"/>
<path d="M15.5001 18.9582H12.1667C11.8251 18.9582 11.5417 18.6748 11.5417 18.3332V14.9998C11.5417 14.1998 12.2001 13.5415 13.0001 13.5415H14.6667C15.4667 13.5415 16.1251 14.1998 16.1251 14.9998V18.3332C16.1251 18.6748 15.8417 18.9582 15.5001 18.9582ZM12.7917 17.7082H14.8751V14.9998C14.8751 14.8832 14.7834 14.7915 14.6667 14.7915H13.0001C12.8834 14.7915 12.7917 14.8832 12.7917 14.9998V17.7082Z" fill="#9995AC"/>
<path d="M5.5 14.7918C5.15833 14.7918 4.875 14.5085 4.875 14.1668V10.8335C4.875 10.4918 5.15833 10.2085 5.5 10.2085C5.84167 10.2085 6.125 10.4918 6.125 10.8335V14.1668C6.125 14.5085 5.84167 14.7918 5.5 14.7918Z" fill="#9995AC"/>
<path d="M16.3333 18.9582H11.3333C9.31659 18.9582 8.20825 17.8498 8.20825 15.8332V4.1665C8.20825 2.14984 9.31659 1.0415 11.3333 1.0415H16.3333C18.3499 1.0415 19.4583 2.14984 19.4583 4.1665V15.8332C19.4583 17.8498 18.3499 18.9582 16.3333 18.9582ZM11.3333 2.2915C10.0166 2.2915 9.45825 2.84984 9.45825 4.1665V15.8332C9.45825 17.1498 10.0166 17.7082 11.3333 17.7082H16.3333C17.6499 17.7082 18.2083 17.1498 18.2083 15.8332V4.1665C18.2083 2.84984 17.6499 2.2915 16.3333 2.2915H11.3333Z" fill="#9995AC"/>
</svg>
