<svg width="43" height="43" viewBox="0 0 43 43" fill="none" xmlns="http://www.w3.org/2000/svg">
    <path
        d="M21.9039 39.8657H7.14935C4.3982 39.8657 2.1377 37.6578 2.1377 34.9241V8.91959C2.1377 6.23853 3.13652 4.15327 4.95894 3.01425C6.79888 1.85772 9.18205 1.89276 11.6528 3.11939L19.4332 6.93946C21.5535 7.99086 23.2182 10.6369 23.2182 12.985V38.5514C23.2182 39.2699 22.6224 39.8657 21.9039 39.8657ZM7.99047 4.81915C7.37715 4.81915 6.81641 4.95934 6.34328 5.25723C5.32693 5.88807 4.76619 7.20231 4.76619 8.91959V34.9241C4.76619 36.2033 5.8351 37.2372 7.14935 37.2372H20.5897V12.985C20.5897 11.6357 19.5033 9.9009 18.2591 9.30511L10.4788 5.48503C9.58508 5.04695 8.74397 4.81915 7.99047 4.81915Z"
        fill="#6A4C65" />
    <path
        d="M32.9613 39.8651H21.9041C21.1856 39.8651 20.5898 39.2693 20.5898 38.5509V18.2589C20.5898 17.8559 20.7651 17.4879 21.0805 17.2426C21.3959 16.9973 21.7814 16.8921 22.1845 16.9797L23.0081 17.155L34.4683 19.7134C37.9554 20.4844 39.7077 22.5346 39.8129 26.0217C39.8304 26.0217 39.8304 26.197 39.8304 26.3897V33.0135C39.8129 37.4995 37.4472 39.8651 32.9613 39.8651ZM23.2183 37.2366H32.9613C36.0454 37.2366 37.1844 36.0976 37.1844 33.0135V26.2495C37.0968 23.8489 36.1856 22.7799 33.89 22.2718L23.2183 19.8886V37.2366Z"
        fill="#6A4C65" />
    <path
        d="M15.7183 17.085H9.63773C8.91928 17.085 8.32349 16.4892 8.32349 15.7708C8.32349 15.0523 8.91928 14.4565 9.63773 14.4565H15.7183C16.4368 14.4565 17.0326 15.0523 17.0326 15.7708C17.0326 16.4892 16.4543 17.085 15.7183 17.085Z"
        fill="#6A4C65" />
    <path
        d="M15.7183 24.0943H9.63773C8.91928 24.0943 8.32349 23.4985 8.32349 22.7801C8.32349 22.0616 8.91928 21.4658 9.63773 21.4658H15.7183C16.4368 21.4658 17.0326 22.0616 17.0326 22.7801C17.0326 23.4985 16.4543 24.0943 15.7183 24.0943Z"
        fill="#6A4C65" />
    <path
        d="M26.6703 31.1039C23.779 31.1039 21.4133 28.7382 21.4133 25.8469V18.4346C21.4133 18.0315 21.5886 17.6635 21.904 17.4007C22.2194 17.1378 22.6224 17.0502 23.0079 17.1378L30.8934 18.9077C31.4892 19.0479 31.9273 19.5736 31.9273 20.1869V25.8294C31.9273 28.7382 29.5792 31.1039 26.6703 31.1039ZM24.0418 20.0817V25.8469C24.0418 27.3013 25.2159 28.4754 26.6703 28.4754C28.1247 28.4754 29.2988 27.3013 29.2988 25.8469V21.2558L24.0418 20.0817Z"
        fill="#6A4C65" />
    <path
        d="M34.5558 31.1042C31.6645 31.1042 29.2988 28.7386 29.2988 25.8472V20.2047C29.2988 19.8017 29.4741 19.4337 29.7895 19.1884C30.1049 18.9431 30.5079 18.8379 30.8934 18.9255L34.4507 19.7141C37.9378 20.4851 39.6901 22.5353 39.7953 26.0225C39.7953 26.0575 39.7953 26.0926 39.7953 26.1276C39.6551 28.9138 37.3595 31.1042 34.5558 31.1042ZM31.9273 21.8344V25.8472C31.9273 27.3017 33.1014 28.4757 34.5558 28.4757C35.9401 28.4757 37.0792 27.4068 37.1668 26.04C37.0792 23.8321 36.168 22.7807 33.8899 22.2725L31.9273 21.8344Z"
        fill="#6A4C65" />
</svg>