<svg width="43" height="43" viewBox="0 0 43 43" fill="none" xmlns="http://www.w3.org/2000/svg">
    <path
        d="M11.7406 32.8561H7.27222C4.04794 32.8561 2.19043 30.9986 2.19043 27.7744V7.27222C2.19043 4.04794 4.04794 2.19043 7.27222 2.19043H14.8072C18.0315 2.19043 19.8889 4.04794 19.8889 7.27222V10.514C19.8889 11.2324 19.2931 11.8282 18.5746 11.8282C17.8562 11.8282 17.2604 11.2324 17.2604 10.514V7.27222C17.2604 5.48485 16.5946 4.81892 14.8072 4.81892H7.27222C5.48485 4.81892 4.81892 5.48485 4.81892 7.27222V27.7744C4.81892 29.5617 5.48485 30.2277 7.27222 30.2277H11.7406C12.4591 30.2277 13.0549 30.8235 13.0549 31.5419C13.0549 32.2604 12.4591 32.8561 11.7406 32.8561Z"
        fill="#6A4C65" />
    <path
        d="M26.2152 39.8654H15.9816C12.4594 39.8654 10.4268 37.8328 10.4268 34.3106V14.7546C10.4268 11.2324 12.4594 9.19971 15.9816 9.19971H26.2152C29.7374 9.19971 31.7525 11.2324 31.7525 14.7546V34.3106C31.7525 37.8328 29.7374 39.8654 26.2152 39.8654ZM15.9816 11.8282C13.8788 11.8282 13.0552 12.6518 13.0552 14.7546V34.3106C13.0552 36.4134 13.8788 37.2369 15.9816 37.2369H26.2152C28.3005 37.2369 29.1241 36.4134 29.1241 34.3106V14.7546C29.1241 12.6518 28.3005 11.8282 26.2152 11.8282H15.9816Z"
        fill="#6A4C65" />
    <path
        d="M34.7834 32.8561H30.4377C29.7192 32.8561 29.1234 32.2604 29.1234 31.5419C29.1234 30.8235 29.7192 30.2277 30.4377 30.2277H34.7834C36.5708 30.2277 37.2367 29.5617 37.2367 27.7744V7.27222C37.2367 5.48485 36.5708 4.81892 34.7834 4.81892H27.2484C25.4611 4.81892 24.7952 5.48485 24.7952 7.27222V10.514C24.7952 11.2324 24.1994 11.8282 23.481 11.8282C22.7625 11.8282 22.1667 11.2324 22.1667 10.514V7.27222C22.1667 4.04794 24.0242 2.19043 27.2484 2.19043H34.7834C38.0077 2.19043 39.8652 4.04794 39.8652 7.27222V27.7744C39.8652 30.9986 38.0077 32.8561 34.7834 32.8561Z"
        fill="#6A4C65" />
    <path
        d="M24.5325 20.5899H17.5232C16.8048 20.5899 16.209 19.9941 16.209 19.2757C16.209 18.5572 16.8048 17.9614 17.5232 17.9614H24.5325C25.251 17.9614 25.8468 18.5572 25.8468 19.2757C25.8468 19.9941 25.251 20.5899 24.5325 20.5899Z"
        fill="#6A4C65" />
    <path
        d="M24.5325 25.8468H17.5232C16.8048 25.8468 16.209 25.251 16.209 24.5325C16.209 23.8141 16.8048 23.2183 17.5232 23.2183H24.5325C25.251 23.2183 25.8468 23.8141 25.8468 24.5325C25.8468 25.251 25.251 25.8468 24.5325 25.8468Z"
        fill="#6A4C65" />
    <path
        d="M21.0279 39.8655C20.3094 39.8655 19.7136 39.2697 19.7136 38.5512V33.2942C19.7136 32.5758 20.3094 31.98 21.0279 31.98C21.7463 31.98 22.3421 32.5758 22.3421 33.2942V38.5512C22.3421 39.2697 21.7463 39.8655 21.0279 39.8655Z"
        fill="#6A4C65" />
</svg>