<svg width="25" height="24" viewBox="0 0 25 24" fill="none" xmlns="http://www.w3.org/2000/svg">
    <path
        d="M18.094 22.75C16.964 22.75 15.774 22.48 14.544 21.96C13.344 21.45 12.134 20.75 10.954 19.9C9.78404 19.04 8.65404 18.08 7.58404 17.03C6.52404 15.96 5.56404 14.83 4.71404 13.67C3.85404 12.47 3.16404 11.27 2.67404 10.11C2.15404 8.87 1.89404 7.67 1.89404 6.54C1.89404 5.76 2.03404 5.02 2.30404 4.33C2.58404 3.62 3.03404 2.96 3.64404 2.39C4.41404 1.63 5.29404 1.25 6.23404 1.25C6.62404 1.25 7.02404 1.34 7.36404 1.5C7.75404 1.68 8.08404 1.95 8.32404 2.31L10.644 5.58C10.854 5.87 11.014 6.15 11.124 6.43C11.254 6.73 11.324 7.03 11.324 7.32C11.324 7.7 11.214 8.07 11.004 8.42C10.854 8.69 10.624 8.98 10.334 9.27L9.65404 9.98C9.66404 10.01 9.67404 10.03 9.68404 10.05C9.80404 10.26 10.044 10.62 10.504 11.16C10.994 11.72 11.454 12.23 11.914 12.7C12.504 13.28 12.994 13.74 13.454 14.12C14.024 14.6 14.394 14.84 14.614 14.95L14.594 15L15.324 14.28C15.634 13.97 15.934 13.74 16.224 13.59C16.774 13.25 17.474 13.19 18.174 13.48C18.434 13.59 18.714 13.74 19.014 13.95L22.334 16.31C22.704 16.56 22.974 16.88 23.134 17.26C23.284 17.64 23.354 17.99 23.354 18.34C23.354 18.82 23.244 19.3 23.034 19.75C22.824 20.2 22.564 20.59 22.234 20.95C21.664 21.58 21.044 22.03 20.324 22.32C19.634 22.6 18.884 22.75 18.094 22.75ZM6.23404 2.75C5.68404 2.75 5.17404 2.99 4.68404 3.47C4.22404 3.9 3.90404 4.37 3.70404 4.88C3.49404 5.4 3.39404 5.95 3.39404 6.54C3.39404 7.47 3.61404 8.48 4.05404 9.52C4.50404 10.58 5.13404 11.68 5.93404 12.78C6.73404 13.88 7.64404 14.95 8.64404 15.96C9.64404 16.95 10.724 17.87 11.834 18.68C12.914 19.47 14.024 20.11 15.124 20.57C16.834 21.3 18.434 21.47 19.754 20.92C20.264 20.71 20.714 20.39 21.124 19.93C21.354 19.68 21.534 19.41 21.684 19.09C21.804 18.84 21.864 18.58 21.864 18.32C21.864 18.16 21.834 18 21.754 17.82C21.724 17.76 21.664 17.65 21.474 17.52L18.154 15.16C17.954 15.02 17.774 14.92 17.604 14.85C17.384 14.76 17.294 14.67 16.954 14.88C16.754 14.98 16.574 15.13 16.374 15.33L15.614 16.08C15.224 16.46 14.624 16.55 14.164 16.38L13.894 16.26C13.484 16.04 13.004 15.7 12.474 15.25C11.994 14.84 11.474 14.36 10.844 13.74C10.354 13.24 9.86404 12.71 9.35404 12.12C8.88404 11.57 8.54404 11.1 8.33404 10.71L8.21404 10.41C8.15404 10.18 8.13404 10.05 8.13404 9.91C8.13404 9.55 8.26404 9.23 8.51404 8.98L9.26404 8.2C9.46404 8 9.61404 7.81 9.71404 7.64C9.79404 7.51 9.82404 7.4 9.82404 7.3C9.82404 7.22 9.79404 7.1 9.74404 6.98C9.67404 6.82 9.56404 6.64 9.42404 6.45L7.10404 3.17C7.00404 3.03 6.88404 2.93 6.73404 2.86C6.57404 2.79 6.40404 2.75 6.23404 2.75ZM14.594 15.01L14.434 15.69L14.704 14.99C14.654 14.98 14.614 14.99 14.594 15.01Z"
        fill="#6A4C65" />
</svg>