<svg width="25" height="24" viewBox="0 0 25 24" fill="none" xmlns="http://www.w3.org/2000/svg">
    <path
        d="M20.2998 14.25C20.2998 14.4489 20.2208 14.6397 20.0801 14.7803C19.9395 14.921 19.7487 15 19.5498 15C19.3509 15 19.1601 14.921 19.0195 14.7803C18.8788 14.6397 18.7998 14.4489 18.7998 14.25C18.7998 14.0511 18.8788 13.8603 19.0195 13.7197C19.1601 13.579 19.3509 13.5 19.5498 13.5C19.7487 13.5 19.9395 13.579 20.0801 13.7197C20.2208 13.8603 20.2998 14.0511 20.2998 14.25ZM6.0498 13.5C5.85089 13.5 5.66013 13.579 5.51947 13.7197C5.37882 13.8603 5.2998 14.0511 5.2998 14.25C5.2998 14.4489 5.37882 14.6397 5.51947 14.7803C5.66013 14.921 5.85089 15 6.0498 15C6.24872 15 6.43948 14.921 6.58013 14.7803C6.72079 14.6397 6.7998 14.4489 6.7998 14.25C6.7998 14.0511 6.72079 13.8603 6.58013 13.7197C6.43948 13.579 6.24872 13.5 6.0498 13.5ZM21.5748 9.75L21.8823 10.59C22.3221 10.9373 22.678 11.3793 22.9234 11.8831C23.1688 12.3869 23.2975 12.9396 23.2998 13.5V20.25C23.2998 20.6478 23.1418 21.0294 22.8605 21.3107C22.5792 21.592 22.1976 21.75 21.7998 21.75H20.2998C19.902 21.75 19.5204 21.592 19.2391 21.3107C18.9578 21.0294 18.7998 20.6478 18.7998 20.25V18.75H6.7998V20.25C6.7998 20.6478 6.64177 21.0294 6.36047 21.3107C6.07916 21.592 5.69763 21.75 5.2998 21.75H3.7998C3.40198 21.75 3.02045 21.592 2.73914 21.3107C2.45784 21.0294 2.2998 20.6478 2.2998 20.25V13.5C2.2998 12.3225 2.8623 11.28 3.7173 10.59L4.0248 9.75H2.2998V8.25H4.5498V8.3625L5.9148 4.725C6.02163 4.4391 6.21312 4.19259 6.46372 4.01837C6.71432 3.84416 7.0121 3.75053 7.3173 3.75H18.2823C18.9048 3.75 19.4673 4.14 19.6848 4.725L21.0498 8.3625V8.25H23.2998V9.75H21.5748ZM5.2998 18.75H3.7998V20.25H5.2998V18.75ZM21.7998 18.75H20.2998V20.25H21.7998V18.75ZM21.7998 17.25V13.5C21.7998 12.9033 21.5628 12.331 21.1408 11.909C20.7188 11.4871 20.1465 11.25 19.5498 11.25H6.0498C5.45307 11.25 4.88077 11.4871 4.45881 11.909C4.03686 12.331 3.7998 12.9033 3.7998 13.5V17.25H21.7998ZM19.5498 9.75H19.9698L18.2748 5.25H7.3173L5.6298 9.75H19.5498ZM8.2998 15H17.2998V13.5H8.2998V15Z"
        fill="#6A4C65" />
</svg>