<svg width="22" height="22" viewBox="0 0 22 22" fill="none" xmlns="http://www.w3.org/2000/svg">
    <path
        d="M0.5375 3.725L2 5.1725V17.75C1.99897 18.3241 2.2174 18.8768 2.61058 19.2951C3.00377 19.7134 3.54197 19.9656 4.115 20H16.82L18.2825 21.4625C18.1625 21.4775 18.035 21.4925 17.9075 21.4925L17.75 21.5H4.25C3.28338 21.5009 2.35373 21.1286 1.65502 20.4606C0.956317 19.7927 0.542531 18.8807 0.5 17.915V4.25C0.5 4.07 0.515 3.89 0.5375 3.725ZM1.7825 0.725002L21.2825 20.225L20.2175 21.275L0.7175 1.775L1.7825 0.725002ZM17.75 0.500002C18.7166 0.499066 19.6463 0.871425 20.345 1.53939C21.0437 2.20735 21.4575 3.11931 21.5 4.085V17.75C21.4998 17.9257 21.4873 18.1011 21.4625 18.275L20 16.8275V4.25C20.001 3.67593 19.7826 3.12318 19.3894 2.7049C18.9962 2.28662 18.458 2.03445 17.885 2H5.18L3.725 0.537502C3.845 0.522502 3.9725 0.507502 4.1 0.507502L4.25 0.500002H17.75ZM7.325 11.75C7.47198 12.4707 7.82763 13.1322 8.34771 13.6523C8.86779 14.1724 9.52933 14.528 10.25 14.675V16.1975C9.12785 16.0358 8.08819 15.5152 7.28651 14.7135C6.48483 13.9118 5.96421 12.8722 5.8025 11.75H7.325ZM11.75 14.93L12.7625 15.95C12.4341 16.0661 12.0949 16.149 11.75 16.1975V14.93ZM14.93 11.75H16.1975C16.145 12.1025 16.0625 12.44 15.9425 12.7625L14.93 11.75ZM11.75 5.8025C12.8722 5.96421 13.9118 6.48483 14.7135 7.28651C15.5152 8.08819 16.0358 9.12785 16.1975 10.25H14.675C14.528 9.52933 14.1724 8.8678 13.6523 8.34772C13.1322 7.82764 12.4707 7.47198 11.75 7.325V5.8025ZM6.05 9.2375L7.07 10.25H5.8025C5.855 9.8975 5.9375 9.56 6.05 9.2375ZM10.25 5.8025V7.07L9.2375 6.05C9.56588 5.93388 9.90508 5.85097 10.25 5.8025ZM16.25 5C16.4489 5 16.6397 5.07902 16.7803 5.21967C16.921 5.36032 17 5.55109 17 5.75C17 5.94891 16.921 6.13968 16.7803 6.28033C16.6397 6.42098 16.4489 6.5 16.25 6.5C16.0511 6.5 15.8603 6.42098 15.7197 6.28033C15.579 6.13968 15.5 5.94891 15.5 5.75C15.5 5.55109 15.579 5.36032 15.7197 5.21967C15.8603 5.07902 16.0511 5 16.25 5Z"
        fill="#6A4C65" />
</svg>