<svg width="25" height="24" viewBox="0 0 25 24" fill="none" xmlns="http://www.w3.org/2000/svg">
<path d="M21.75 5.97998C18.42 5.64998 15.07 5.47998 11.73 5.47998C9.75 5.47998 7.77 5.57998 5.79 5.77998L3.75 5.97998" stroke="#F55D5D" stroke-width="1.5" stroke-linecap="round" stroke-linejoin="round"/>
<path d="M9.25 4.97L9.47 3.66C9.63 2.71 9.75 2 11.44 2H14.06C15.75 2 15.88 2.75 16.03 3.67L16.25 4.97" stroke="#F55D5D" stroke-width="1.5" stroke-linecap="round" stroke-linejoin="round"/>
<path d="M19.6004 9.14014L18.9504 19.2101C18.8404 20.7801 18.7504 22.0001 15.9604 22.0001H9.54039C6.75039 22.0001 6.66039 20.7801 6.55039 19.2101L5.90039 9.14014" stroke="#F55D5D" stroke-width="1.5" stroke-linecap="round" stroke-linejoin="round"/>
<path d="M11.0801 16.5H14.4101" stroke="#F55D5D" stroke-width="1.5" stroke-linecap="round" stroke-linejoin="round"/>
<path d="M10.25 12.5H15.25" stroke="#F55D5D" stroke-width="1.5" stroke-linecap="round" stroke-linejoin="round"/>
</svg>
