<svg width="25" height="24" viewBox="0 0 25 24" fill="none" xmlns="http://www.w3.org/2000/svg">
<path d="M15.25 22.75H9.25C3.82 22.75 1.5 20.43 1.5 15V9C1.5 3.57 3.82 1.25 9.25 1.25H11.25C11.66 1.25 12 1.59 12 2C12 2.41 11.66 2.75 11.25 2.75H9.25C4.64 2.75 3 4.39 3 9V15C3 19.61 4.64 21.25 9.25 21.25H15.25C19.86 21.25 21.5 19.61 21.5 15V13C21.5 12.59 21.84 12.25 22.25 12.25C22.66 12.25 23 12.59 23 13V15C23 20.43 20.68 22.75 15.25 22.75Z" fill="#6A4C65"/>
<path d="M8.75032 17.6901C8.14032 17.6901 7.58032 17.4701 7.17032 17.0701C6.68032 16.5801 6.47032 15.8701 6.58032 15.1201L7.01032 12.1101C7.09032 11.5301 7.47032 10.7801 7.88032 10.3701L15.7603 2.49006C17.7503 0.500059 19.7703 0.500059 21.7603 2.49006C22.8503 3.58006 23.3403 4.69006 23.2403 5.80006C23.1503 6.70006 22.6703 7.58006 21.7603 8.48006L13.8803 16.3601C13.4703 16.7701 12.7203 17.1501 12.1403 17.2301L9.13032 17.6601C9.00032 17.6901 8.87032 17.6901 8.75032 17.6901ZM16.8203 3.55006L8.94032 11.4301C8.75032 11.6201 8.53032 12.0601 8.49032 12.3201L8.06032 15.3301C8.02032 15.6201 8.08032 15.8601 8.23032 16.0101C8.38032 16.1601 8.62032 16.2201 8.91032 16.1801L11.9203 15.7501C12.1803 15.7101 12.6303 15.4901 12.8103 15.3001L20.6903 7.42006C21.3403 6.77006 21.6803 6.19006 21.7303 5.65006C21.7903 5.00006 21.4503 4.31006 20.6903 3.54006C19.0903 1.94006 17.9903 2.39006 16.8203 3.55006Z" fill="#6A4C65"/>
<path d="M20.0996 9.82978C20.0296 9.82978 19.9596 9.81978 19.8996 9.79978C17.2696 9.05978 15.1796 6.96978 14.4396 4.33978C14.3296 3.93978 14.5596 3.52978 14.9596 3.40978C15.3596 3.29978 15.7696 3.52978 15.8796 3.92978C16.4796 6.05978 18.1696 7.74978 20.2996 8.34978C20.6996 8.45978 20.9296 8.87978 20.8196 9.27978C20.7296 9.61978 20.4296 9.82978 20.0996 9.82978Z" fill="#6A4C65"/>
</svg>
