<svg width="43" height="43" viewBox="0 0 43 43" fill="none" xmlns="http://www.w3.org/2000/svg">
    <path
        d="M21.0279 32.8562C20.3094 32.8562 19.7136 32.2604 19.7136 31.5419V26.2849C19.7136 25.5665 20.3094 24.9707 21.0279 24.9707C21.7463 24.9707 22.3421 25.5665 22.3421 26.2849V31.5419C22.3421 32.2604 21.7463 32.8562 21.0279 32.8562Z"
        fill="#6A4C65" />
    <path
        d="M30.8409 39.532H11.2149C8.02562 39.532 5.11676 37.0788 4.59106 33.9421L2.26046 19.9761C1.87495 17.8032 2.94387 15.017 4.67868 13.6327L16.8223 3.90724C19.1704 2.01472 22.8678 2.03225 25.2335 3.92476L37.3771 13.6327C39.0944 15.017 40.1458 17.8032 39.7953 19.9761L37.4647 33.9246C36.939 37.0262 33.9601 39.532 30.8409 39.532ZM21.0104 5.13386C20.0816 5.13386 19.1529 5.41424 18.4695 5.95746L6.32586 15.7004C5.34456 16.4889 4.64363 18.3114 4.85391 19.5555L7.1845 33.504C7.49992 35.344 9.33987 36.9036 11.2149 36.9036H30.8409C32.7159 36.9036 34.5558 35.344 34.8713 33.4865L37.2019 19.538C37.3946 18.3114 36.6937 16.4539 35.7299 15.6829L23.5863 5.97498C22.8854 5.41424 21.9391 5.13386 21.0104 5.13386Z"
        fill="#6A4C65" />
</svg>