<svg width="20" height="21" viewBox="0 0 20 21" fill="none" xmlns="http://www.w3.org/2000/svg">
<path d="M5.14963 19.2529C5.06629 19.2529 4.97463 19.2445 4.89963 19.2362L3.09129 18.9862C2.22463 18.8695 1.44129 18.0945 1.30796 17.2112L1.05796 15.3862C0.974626 14.8029 1.22463 14.0445 1.64129 13.6195L5.29963 9.9612C4.70796 7.59453 5.39129 5.09453 7.13296 3.36953C9.83296 0.677866 14.2246 0.669532 16.933 3.36953C18.2413 4.67787 18.958 6.41953 18.958 8.26953C18.958 10.1195 18.2413 11.8612 16.933 13.1695C15.183 14.9029 12.6913 15.5862 10.3413 14.9862L6.67463 18.6445C6.32463 19.0112 5.69963 19.2529 5.14963 19.2529ZM12.0246 2.59453C10.5663 2.59453 9.11629 3.14453 8.00796 4.25287C6.50796 5.74453 5.96629 7.92787 6.59129 9.9612C6.65796 10.1862 6.59963 10.4195 6.43296 10.5862L2.51629 14.5029C2.37463 14.6445 2.25796 15.0112 2.28296 15.2029L2.53296 17.0279C2.58296 17.3445 2.92463 17.7029 3.24129 17.7445L5.05796 17.9945C5.25796 18.0279 5.62463 17.9112 5.76629 17.7695L9.69963 13.8445C9.86629 13.6779 10.108 13.6279 10.3246 13.6945C12.333 14.3279 14.5246 13.7862 16.0246 12.2862C17.0913 11.2195 17.683 9.7862 17.683 8.26953C17.683 6.74453 17.0913 5.31953 16.0246 4.25287C14.9413 3.15287 13.483 2.59453 12.0246 2.59453Z" fill="#6A4C65"/>
<path d="M7.65872 17.4112C7.50039 17.4112 7.34206 17.3528 7.21706 17.2278L5.30039 15.3112C5.05872 15.0695 5.05872 14.6695 5.30039 14.4278C5.54206 14.1862 5.94206 14.1862 6.18372 14.4278L8.10039 16.3445C8.34206 16.5862 8.34206 16.9862 8.10039 17.2278C7.97539 17.3528 7.81706 17.4112 7.65872 17.4112Z" fill="#6A4C65"/>
<path d="M12.083 10.0859C11.0497 10.0859 10.208 9.24427 10.208 8.21094C10.208 7.1776 11.0497 6.33594 12.083 6.33594C13.1163 6.33594 13.958 7.1776 13.958 8.21094C13.958 9.24427 13.1163 10.0859 12.083 10.0859ZM12.083 7.58594C11.7413 7.58594 11.458 7.86927 11.458 8.21094C11.458 8.5526 11.7413 8.83594 12.083 8.83594C12.4247 8.83594 12.708 8.5526 12.708 8.21094C12.708 7.86927 12.4247 7.58594 12.083 7.58594Z" fill="#6A4C65"/>
</svg>
