<svg width="43" height="43" viewBox="0 0 43 43" fill="none" xmlns="http://www.w3.org/2000/svg">
    <path
        d="M40.3034 39.8653H1.75223C1.03378 39.8653 0.437988 39.2695 0.437988 38.5511C0.437988 37.8326 1.03378 37.2368 1.75223 37.2368H40.3034C41.0219 37.2368 41.6177 37.8326 41.6177 38.5511C41.6177 39.2695 41.0219 39.8653 40.3034 39.8653Z"
        fill="#6A4C65" />
    <path
        d="M34.6614 39.8829C33.943 39.8829 33.3472 39.2871 33.3472 38.5686V30.7532C33.3472 30.0348 33.943 29.439 34.6614 29.439C35.3799 29.439 35.9757 30.0348 35.9757 30.7532V38.5686C35.9757 39.2871 35.3974 39.8829 34.6614 39.8829Z"
        fill="#6A4C65" />
    <path
        d="M34.6962 32.0675C31.8399 32.0675 29.5269 29.7544 29.5269 26.8981V22.9204C29.5269 20.0641 31.8399 17.751 34.6962 17.751C37.5525 17.751 39.8656 20.0641 39.8656 22.9204V26.8981C39.8656 29.7544 37.5525 32.0675 34.6962 32.0675ZM34.6962 20.397C33.2944 20.397 32.1553 21.536 32.1553 22.9379V26.9156C32.1553 28.3175 33.2944 29.4565 34.6962 29.4565C36.0981 29.4565 37.2371 28.3175 37.2371 26.9156V22.9379C37.2371 21.536 36.0981 20.397 34.6962 20.397Z"
        fill="#6A4C65" />
    <path
        d="M25.058 39.8651C24.3395 39.8651 23.7437 39.2693 23.7437 38.5509V10.5663C23.7437 7.78007 22.5697 6.58845 19.8361 6.58845H8.91913C6.16797 6.58845 4.97639 7.78007 4.97639 10.5663V38.5509C4.97639 39.2693 4.3806 39.8651 3.66215 39.8651C2.94369 39.8651 2.3479 39.2693 2.3479 38.5509V10.5663C2.3479 6.30811 4.67849 3.95996 8.91913 3.95996H19.8361C24.0592 3.95996 26.3722 6.30811 26.3722 10.5663V38.5509C26.3722 39.2693 25.7764 39.8651 25.058 39.8651Z"
        fill="#6A4C65" />
    <path
        d="M18.8372 15.7711H10.1631C9.44467 15.7711 8.84888 15.1753 8.84888 14.4568C8.84888 13.7384 9.44467 13.1426 10.1631 13.1426H18.8372C19.5556 13.1426 20.1514 13.7384 20.1514 14.4568C20.1514 15.1753 19.5556 15.7711 18.8372 15.7711Z"
        fill="#6A4C65" />
    <path
        d="M18.8372 22.3424H10.1631C9.44467 22.3424 8.84888 21.7466 8.84888 21.0281C8.84888 20.3097 9.44467 19.7139 10.1631 19.7139H18.8372C19.5556 19.7139 20.1514 20.3097 20.1514 21.0281C20.1514 21.7466 19.5556 22.3424 18.8372 22.3424Z"
        fill="#6A4C65" />
    <path
        d="M14.4566 39.8652C13.7381 39.8652 13.1423 39.2695 13.1423 38.551V31.9798C13.1423 31.2613 13.7381 30.6655 14.4566 30.6655C15.175 30.6655 15.7708 31.2613 15.7708 31.9798V38.551C15.7708 39.2695 15.175 39.8652 14.4566 39.8652Z"
        fill="#6A4C65" />
</svg>