<svg width="25" height="24" viewBox="0 0 25 24" fill="none" xmlns="http://www.w3.org/2000/svg">
    <path
        d="M18.0498 0.750006C18.4289 0.748938 18.7943 0.891439 19.0726 1.14885C19.3509 1.40626 19.5214 1.75949 19.5498 2.13751V14.25H22.5498V15.75H21.0498V21.75H22.5498V23.25H3.0498V21.75H4.5498V15.75H3.0498V14.25H6.0498V2.25001C6.04874 1.87093 6.19124 1.5055 6.44865 1.22722C6.70606 0.948936 7.05929 0.778436 7.4373 0.750006H7.5498H18.0498ZM7.5498 15.75H6.0498V21.75H7.5498V15.75ZM10.5498 15.75H9.0498V21.75H10.5498V15.75ZM13.5498 15.75H12.0498V21.75H13.5498V15.75ZM16.5498 15.75H15.0498V21.75H16.5498V15.75ZM19.5498 15.75H18.0498V21.75H19.5498V15.75ZM12.0498 9.75001H7.5498V14.25H12.0498V9.75001ZM18.0498 9.75001H13.5498V14.25H18.0498V9.75001ZM12.0498 2.25001H7.5498V8.25001H12.0498V2.25001ZM18.0498 2.25001H13.5498V8.25001H18.0498V2.25001Z"
        fill="#6A4C65" />
</svg>