<svg width="24" height="24" viewBox="0 0 24 24" fill="none" xmlns="http://www.w3.org/2000/svg">
<path d="M1.73002 15.24L1.73002 15.11C1.73002 10.67 3.48002 8.53001 7.40002 8.16001C7.81002 8.12001 8.18002 8.42001 8.22002 8.84001C8.26002 9.24001 7.95002 9.62001 7.54002 9.66001C4.40002 9.95001 3.23002 11.43 3.23002 15.12L3.23002 15.25C3.23002 19.32 4.67002 20.76 8.74002 20.76L15.26 20.76C19.33 20.76 20.77 19.32 20.77 15.25L20.77 15.12C20.77 11.41 19.58 9.93001 16.38 9.66001C15.97 9.61001 15.66 9.26002 15.7 8.84002C15.73 8.42002 16.1 8.12001 16.51 8.15001C20.49 8.49001 22.27 10.64 22.27 15.11L22.27 15.24C22.27 20.15 20.17 22.25 15.26 22.25L8.74002 22.25C3.83002 22.25 1.73002 20.15 1.73002 15.24Z" fill="#2C254B"/>
<path d="M11.25 15.0001L11.25 3.62012C11.25 3.21012 11.59 2.87012 12 2.87012C12.41 2.87012 12.75 3.21012 12.75 3.62012L12.75 15.0001C12.75 15.4101 12.41 15.7501 12 15.7501C11.59 15.7501 11.25 15.4101 11.25 15.0001Z" fill="#2C254B"/>
<path d="M7.90016 5.84994C7.90016 5.65994 7.97016 5.46994 8.12016 5.31994L11.4702 1.96994C11.7602 1.67994 12.2402 1.67994 12.5302 1.96994L15.8802 5.31994C16.1702 5.60994 16.1702 6.08994 15.8802 6.37994C15.5902 6.66994 15.1102 6.66994 14.8202 6.37994L12.0002 3.55994L9.18016 6.37994C8.89016 6.66994 8.41016 6.66994 8.12016 6.37994C7.97016 6.23994 7.90016 6.03994 7.90016 5.84994Z" fill="#2C254B"/>
</svg>
