<svg width="24" height="25" viewBox="0 0 24 25" fill="none" xmlns="http://www.w3.org/2000/svg">
<g clip-path="url(#clip0_40_4577)">
<path d="M16.9331 13.0113L15.4804 11.5587L19.3195 7.71959L19.8167 8.21674C20.1387 8.53868 20.6804 8.47526 20.9168 8.08132L23.8998 3.10964C24.0658 2.83298 24.0222 2.47884 23.794 2.25075L21.8053 0.262088C21.5772 0.0339478 21.2231 -0.00959894 20.9464 0.156338L15.9748 3.13936C15.5824 3.37476 15.5165 3.91654 15.8393 4.23942L16.3365 4.73657L12.4974 8.57566L11.0447 7.12301C11.5561 5.21249 11.0345 3.13519 9.5883 1.68891C7.77926 -0.120083 5.07116 -0.406394 2.95331 0.734398C2.75766 0.83982 2.62336 1.03149 2.59106 1.25138C2.55881 1.47127 2.63241 1.69346 2.78958 1.85063L5.42826 4.48931C5.70243 4.76348 5.70243 5.20954 5.42826 5.48361C5.15409 5.75778 4.70807 5.75783 4.4339 5.48361L1.79522 2.84489C1.63805 2.68772 1.41582 2.61408 1.19598 2.64638C0.976086 2.67862 0.784415 2.81297 0.678993 3.00862C-0.457486 5.11855 -0.181581 7.82843 1.6336 9.64357C3.07664 11.0866 5.15287 11.6125 7.0677 11.1001L7.52586 11.5582L1.0313 18.0529C-0.343346 19.4275 -0.34419 21.6492 1.0313 23.0248C2.40206 24.3955 4.63241 24.3956 6.00322 23.0248L12.4977 16.5301L12.956 16.9883C12.4447 18.8989 12.9662 20.9762 14.4124 22.4224C16.2215 24.2315 18.9296 24.5178 21.0474 23.377C21.2431 23.2716 21.3774 23.0799 21.4097 22.86C21.4419 22.6401 21.3683 22.4179 21.2111 22.2608L18.5725 19.6221C18.2983 19.3479 18.2983 18.9019 18.5725 18.6278C18.8466 18.3536 19.2927 18.3537 19.5668 18.6278L22.2055 21.2665C22.3626 21.4236 22.5849 21.4971 22.8047 21.465C23.0246 21.4327 23.2163 21.2984 23.3217 21.1027C24.4582 18.9928 24.1824 16.2829 22.3672 14.4678C20.9241 13.0248 18.8479 12.4989 16.9331 13.0113ZM21.1992 1.64461L22.4115 2.85689L20.1743 6.58559L17.4704 3.88185L21.1992 1.64461ZM17.3308 5.73093L18.3252 6.72523L14.4861 10.5643L13.4917 9.57002L17.3308 5.73093ZM5.00887 22.0305C4.1864 22.853 2.84813 22.853 2.02561 22.0305C1.20038 21.2053 1.19987 19.873 2.02561 19.0473L8.52012 12.5526L11.5034 15.5358L5.00887 22.0305ZM22.4498 19.5221L20.5612 17.6335C19.7388 16.8111 18.4006 16.8111 17.5782 17.6335C16.7558 18.4558 16.7558 19.794 17.5782 20.6165L19.4668 22.5051C18.0319 22.8969 16.4895 22.5108 15.4068 21.4282C14.2609 20.2822 13.8718 18.5547 14.4156 17.027C14.5066 16.7712 14.4423 16.4859 14.2503 16.294L7.76206 9.80575C7.57053 9.61422 7.28544 9.5493 7.02912 9.64052C5.50138 10.1843 3.77386 9.79516 2.62791 8.64926C1.54519 7.56654 1.15918 6.02427 1.55096 4.58934L3.43959 6.47797C4.26196 7.30034 5.60015 7.30029 6.42261 6.47797C7.24498 5.6556 7.24498 4.31742 6.42261 3.49495L4.53398 1.60632C5.96886 1.21444 7.51123 1.60055 8.59395 2.68327C9.73989 3.82921 10.129 5.55679 9.58521 7.08448C9.49418 7.34023 9.55849 7.62551 9.75044 7.81742L16.2387 14.3056C16.4306 14.4976 16.7159 14.5619 16.9716 14.4709C18.4993 13.9271 20.2269 14.3162 21.3728 15.4621C22.4556 16.5449 22.8416 18.0872 22.4498 19.5221Z" fill="#6A4C65"/>
<path d="M9.14218 15.055C8.86758 14.7805 8.42246 14.7805 8.14787 15.055L3.85142 19.3516C3.57687 19.6262 3.57687 20.0713 3.85142 20.3459C4.12606 20.6205 4.57113 20.6205 4.84573 20.3459L9.14213 16.0493C9.41668 15.7747 9.41668 15.3296 9.14218 15.055Z" fill="#6A4C65"/>
</g>
<defs>
<clipPath id="clip0_40_4577">
<rect width="24" height="24" fill="white" transform="translate(0 0.0556641)"/>
</clipPath>
</defs>
</svg>
