<svg width="24" height="20" viewBox="0 0 24 20" fill="none" xmlns="http://www.w3.org/2000/svg">
    <path
        d="M6.54981 19.75V18.25H8.04981V16.75H4.29981C3.33318 16.7509 2.40353 16.3786 1.70483 15.7106C1.00612 15.0427 0.592337 14.1307 0.549806 13.165V4C0.54887 3.03338 0.92123 2.10373 1.58919 1.40502C2.25715 0.706319 3.16912 0.292533 4.13481 0.250002H19.2998C20.2664 0.249066 21.1961 0.621425 21.8948 1.28939C22.5935 1.95735 23.0073 2.86931 23.0498 3.835V13C23.0507 13.9666 22.6784 14.8963 22.0104 15.595C21.3425 16.2937 20.4305 16.7075 19.4648 16.75H15.5498V18.25H17.0498V19.75H6.54981ZM14.0498 16.75H9.54981V18.25H14.0498V16.75ZM19.2998 1.75H4.29981C3.72574 1.74897 3.17299 1.9674 2.75471 2.36059C2.33642 2.75377 2.08425 3.29197 2.04981 3.865V13C2.04877 13.5741 2.26721 14.1268 2.66039 14.5451C3.05358 14.9634 3.59177 15.2156 4.16481 15.25H19.2998C19.8739 15.251 20.4266 15.0326 20.8449 14.6394C21.2632 14.2462 21.5154 13.708 21.5498 13.135V4C21.5508 3.42593 21.3324 2.87318 20.9392 2.4549C20.546 2.03662 20.0078 1.78444 19.4348 1.75H19.2998Z"
        fill="#6A4C65" />
</svg>