<svg width="20" height="21" viewBox="0 0 20 21" fill="none" xmlns="http://www.w3.org/2000/svg">
<path d="M3.4375 18.3887C2.85734 18.3887 2.30094 18.1582 1.8907 17.748C1.48047 17.3377 1.25 16.7813 1.25 16.2012V13.0762C1.25 12.8275 1.34877 12.5891 1.52459 12.4133C1.7004 12.2374 1.93886 12.1387 2.1875 12.1387C2.43614 12.1387 2.6746 12.2374 2.85041 12.4133C3.02623 12.5891 3.125 12.8275 3.125 13.0762V16.2012C3.125 16.3737 3.265 16.5137 3.4375 16.5137H16.5625C16.6454 16.5137 16.7249 16.4807 16.7835 16.4221C16.8421 16.3635 16.875 16.2841 16.875 16.2012V13.0762C16.875 12.8275 16.9738 12.5891 17.1496 12.4133C17.3254 12.2374 17.5639 12.1387 17.8125 12.1387C18.0611 12.1387 18.2996 12.2374 18.4754 12.4133C18.6512 12.5891 18.75 12.8275 18.75 13.0762V16.2012C18.75 16.7813 18.5195 17.3377 18.1093 17.748C17.6991 18.1582 17.1427 18.3887 16.5625 18.3887H3.4375Z" fill="#6A4C65"/>
<path d="M14.7249 6.78836C14.8119 6.87537 14.8809 6.97865 14.928 7.09232C14.9751 7.20599 14.9993 7.32783 14.9993 7.45086C14.9993 7.5739 14.9751 7.69573 14.928 7.80941C14.8809 7.92308 14.8119 8.02636 14.7249 8.11337C14.6379 8.20037 14.5346 8.26938 14.4209 8.31646C14.3073 8.36355 14.1854 8.38778 14.0624 8.38778C13.9394 8.38778 13.8175 8.36355 13.7039 8.31646C13.5902 8.26938 13.4869 8.20037 13.3999 8.11337L10.9374 5.65211V12.7634C10.9374 13.012 10.8386 13.2505 10.6628 13.4263C10.487 13.6021 10.2485 13.7009 9.9999 13.7009C9.75126 13.7009 9.51281 13.6021 9.33699 13.4263C9.16118 13.2505 9.0624 13.012 9.0624 12.7634V5.65211L6.59991 8.11337C6.5129 8.20037 6.40962 8.26938 6.29595 8.31646C6.18228 8.36355 6.06044 8.38778 5.9374 8.38778C5.81437 8.38778 5.69253 8.36355 5.57886 8.31646C5.46519 8.26938 5.36191 8.20037 5.2749 8.11337C5.1879 8.02636 5.11889 7.92308 5.07181 7.80941C5.02472 7.69573 5.00049 7.5739 5.00049 7.45086C5.00049 7.32783 5.02472 7.20599 5.07181 7.09232C5.11889 6.97865 5.1879 6.87537 5.2749 6.78836L9.3374 2.72586C9.42436 2.63878 9.52763 2.5697 9.64131 2.52257C9.75499 2.47543 9.87684 2.45117 9.9999 2.45117C10.123 2.45117 10.2448 2.47543 10.3585 2.52257C10.4722 2.5697 10.5754 2.63878 10.6624 2.72586L14.7249 6.78836Z" fill="#6A4C65"/>
</svg>
