<svg width="24" height="18" viewBox="0 0 24 18" fill="none" xmlns="http://www.w3.org/2000/svg">
    <path
        d="M12.0002 12.2476C12.7302 12.2476 13.4303 12.5376 13.9465 13.0537C14.4627 13.5699 14.7527 14.2701 14.7527 15.0001C14.7527 15.7301 14.4627 16.4302 13.9465 16.9464C13.4303 17.4626 12.7302 17.7526 12.0002 17.7526C11.2702 17.7526 10.5701 17.4626 10.0539 16.9464C9.53767 16.4302 9.24767 15.7301 9.24767 15.0001C9.24767 14.2701 9.53767 13.5699 10.0539 13.0537C10.5701 12.5376 11.2702 12.2476 12.0002 12.2476ZM12.0002 13.7476C11.668 13.7476 11.3494 13.8795 11.1145 14.1144C10.8796 14.3493 10.7477 14.6679 10.7477 15.0001C10.7477 15.3322 10.8796 15.6508 11.1145 15.8857C11.3494 16.1206 11.668 16.2526 12.0002 16.2526C12.3324 16.2526 12.6509 16.1206 12.8858 15.8857C13.1207 15.6508 13.2527 15.3322 13.2527 15.0001C13.2527 14.6679 13.1207 14.3493 12.8858 14.1144C12.6509 13.8795 12.3324 13.7476 12.0002 13.7476ZM12.0002 8.25006C13.2513 8.25038 14.4777 8.59841 15.5425 9.25529C16.6073 9.91218 17.4686 10.8521 18.0302 11.9701L16.8977 13.1026C16.5158 12.1138 15.8436 11.2637 14.9695 10.6642C14.0953 10.0647 13.0601 9.74385 12.0002 9.74385C10.9402 9.74385 9.90505 10.0647 9.0309 10.6642C8.15674 11.2637 7.48453 12.1138 7.10268 13.1026L5.97018 11.9701C6.53179 10.8521 7.39306 9.91218 8.45786 9.25529C9.52265 8.59841 10.7491 8.25038 12.0002 8.25006ZM12.0002 4.25256C15.7352 4.25256 19.0277 6.15756 20.9552 9.05256L19.8677 10.1326C19.0391 8.79119 17.8813 7.68394 16.5043 6.91601C15.1273 6.14808 13.5768 5.74497 12.0002 5.74497C10.4235 5.74497 8.87305 6.14808 7.49605 6.91601C6.11906 7.68394 4.96127 8.79119 4.13268 10.1326L3.04518 9.04506C4.0257 7.56802 5.35662 6.35669 6.91917 5.51914C8.48172 4.68159 10.2273 4.24388 12.0002 4.24506V4.25256ZM12.0002 0.247559C16.8377 0.247559 21.1352 2.57256 23.8202 6.17256L22.7477 7.25256C21.5227 5.54613 19.909 4.1559 18.0401 3.19692C16.1712 2.23793 14.1008 1.73775 12.0002 1.73775C9.89958 1.73775 7.82918 2.23793 5.96027 3.19692C4.09136 4.1559 2.47765 5.54613 1.25268 7.25256L0.180176 6.18006C2.86518 2.58006 7.15518 0.255059 12.0002 0.255059V0.247559Z"
        fill="#6A4C65" />
</svg>