<svg width="24" height="25" viewBox="0 0 24 25" fill="none" xmlns="http://www.w3.org/2000/svg">
<path d="M12.75 16.809H13.4C14.05 16.809 14.59 16.229 14.59 15.529C14.59 14.659 14.28 14.489 13.77 14.309L12.76 13.959V16.809H12.75Z" fill="#9995AC"/>
<path d="M11.9701 2.78908C6.45007 2.80908 1.98007 7.29908 2.00007 12.8191C2.02007 18.3391 6.51007 22.8091 12.0301 22.7891C17.5501 22.7691 22.0201 18.2791 22.0001 12.7591C21.9801 7.23908 17.4901 2.77908 11.9701 2.78908ZM14.2601 12.8891C15.0401 13.1591 16.0901 13.7391 16.0901 15.5291C16.0901 17.0691 14.8801 18.3091 13.4001 18.3091H12.7501V18.8891C12.7501 19.2991 12.4101 19.6391 12.0001 19.6391C11.5901 19.6391 11.2501 19.2991 11.2501 18.8891V18.3091H10.8901C9.25007 18.3091 7.92007 16.9291 7.92007 15.2291C7.92007 14.8191 8.26007 14.4791 8.67007 14.4791C9.08007 14.4791 9.42007 14.8191 9.42007 15.2291C9.42007 16.0991 10.0801 16.8091 10.8901 16.8091H11.2501V13.4291L9.74007 12.8891C8.96007 12.6191 7.91007 12.0391 7.91007 10.2491C7.91007 8.70908 9.12007 7.46908 10.6001 7.46908H11.2501V6.88908C11.2501 6.47908 11.5901 6.13908 12.0001 6.13908C12.4101 6.13908 12.7501 6.47908 12.7501 6.88908V7.46908H13.1101C14.7501 7.46908 16.0801 8.84908 16.0801 10.5491C16.0801 10.9591 15.7401 11.2991 15.3301 11.2991C14.9201 11.2991 14.5801 10.9591 14.5801 10.5491C14.5801 9.67908 13.9201 8.96908 13.1101 8.96908H12.7501V12.3491L14.2601 12.8891Z" fill="#9995AC"/>
<path d="M9.41992 10.2587C9.41992 11.1287 9.72992 11.2988 10.2399 11.4788L11.2499 11.8287V8.96875H10.5999C9.94992 8.96875 9.41992 9.54875 9.41992 10.2587Z" fill="#9995AC"/>
</svg>
