<svg width="24" height="25" viewBox="0 0 24 25" fill="none" xmlns="http://www.w3.org/2000/svg">
<path d="M16 5.13867C16 6.37867 14.99 7.38867 13.75 7.38867H10.25C9.63 7.38867 9.07 7.13867 8.66 6.72867C8.25 6.31867 8 5.75867 8 5.13867C8 3.89867 9.01 2.88867 10.25 2.88867H13.75C14.37 2.88867 14.93 3.13867 15.34 3.54867C15.75 3.95867 16 4.51867 16 5.13867Z" fill="white"/>
<path d="M18.83 5.91839C18.6 5.72839 18.34 5.57839 18.06 5.46839C17.77 5.35839 17.48 5.58839 17.42 5.88839C17.08 7.59839 15.57 8.88839 13.75 8.88839H10.25C9.25 8.88839 8.31 8.49839 7.6 7.78839C7.08 7.26839 6.72 6.60839 6.58 5.89839C6.52 5.59839 6.22 5.35839 5.93 5.47839C4.77 5.94839 4 7.00839 4 9.13839V18.8884C4 21.8884 5.79 22.8884 8 22.8884H16C18.21 22.8884 20 21.8884 20 18.8884V9.13839C20 7.50839 19.55 6.50839 18.83 5.91839ZM8 13.1384H12C12.41 13.1384 12.75 13.4784 12.75 13.8884C12.75 14.2984 12.41 14.6384 12 14.6384H8C7.59 14.6384 7.25 14.2984 7.25 13.8884C7.25 13.4784 7.59 13.1384 8 13.1384ZM16 18.6384H8C7.59 18.6384 7.25 18.2984 7.25 17.8884C7.25 17.4784 7.59 17.1384 8 17.1384H16C16.41 17.1384 16.75 17.4784 16.75 17.8884C16.75 18.2984 16.41 18.6384 16 18.6384Z" fill="white"/>
</svg>
