<svg width="24" height="25" viewBox="0 0 24 25" fill="none" xmlns="http://www.w3.org/2000/svg">
<path d="M20.6201 9.33867C19.5701 4.71867 15.5401 2.63867 12.0001 2.63867C12.0001 2.63867 12.0001 2.63867 11.9901 2.63867C8.4601 2.63867 4.4201 4.70867 3.3701 9.32867C2.2001 14.4887 5.3601 18.8587 8.2201 21.6087C9.2801 22.6287 10.6401 23.1387 12.0001 23.1387C13.3601 23.1387 14.7201 22.6287 15.7701 21.6087C18.6301 18.8587 21.7901 14.4987 20.6201 9.33867ZM12.0001 14.3487C10.2601 14.3487 8.8501 12.9387 8.8501 11.1987C8.8501 9.45867 10.2601 8.04867 12.0001 8.04867C13.7401 8.04867 15.1501 9.45867 15.1501 11.1987C15.1501 12.9387 13.7401 14.3487 12.0001 14.3487Z" fill="white"/>
</svg>
